<svg width="158" height="40" xmlns="http://www.w3.org/2000/svg"><g id="Welcome" fill="none" fill-rule="evenodd"><g id="Elements-Case-Study-(Web)-Full-HD" transform="translate(-390 -40)"><g id="Header" transform="translate(390 40)"><g id="Page-1"><path d="M19.29 20.047c2.217 1.882 4.34 3.718 6.509 5.553l.047-.047c-.094-.094-.189-.235-.283-.33-1.792-1.835-3.585-3.717-5.377-5.552-.236-.236-.283-.471-.188-.753 1.037-4.612 2.075-9.224 3.065-13.836 0-.047 0-.094-.094-.14-.943 3.246-1.84 6.493-2.783 9.787C13.442 9.835 6.744 4.941 0 .094 0 .047.047 0 .047 0 1.18.235 2.264.424 3.396.659c4.103.8 8.254 1.6 12.357 2.4 2.358.47 4.716.894 7.122 1.412.235.047.518.235.707.423 5.424 4.706 10.8 9.365 16.225 14.07.094.095.188.189.33.283-.189.094-.33.188-.472.235-4.103 2.118-8.16 4.189-12.263 6.306a5.357 5.357 0 0 0-1.084.706c-5.849 4.424-11.603 8.847-17.357 13.27-.047.048-.141.095-.283.095 3.537-6.588 7.075-13.177 10.612-19.812zm30.704-8.188c-2.358.518-4.67.988-7.075 1.506.472-1.93.897-3.718 1.321-5.506-.047 0-.047 0-.094-.047-1.274 3.765-2.547 7.53-3.868 11.341a1163.393 1163.393 0 0 0-7.593-7.623 55.233 55.233 0 0 0 2.216-.848c3.019-1.082 5.99-2.211 9.009-3.294.33-.14.566-.094.849.142a360.59 360.59 0 0 1 4.81 4c.142.047.236.188.425.329z" id="Fill-3" fill="#007672"/><path id="Fill-6" fill="#373A36" d="M61.926 15.012v13.223h-2.735V15.012h-4.48v-2.589h11.743v2.589z"/><path d="M68.482 21.27h5.094c-.047-.846-.33-1.458-.754-1.882-.425-.423-.99-.658-1.651-.658-.755 0-1.368.188-1.887.611-.471.424-.754 1.036-.802 1.93m2.689 7.2c-1.65 0-2.924-.518-3.915-1.6-.943-1.083-1.415-2.541-1.415-4.424 0-1.882.472-3.341 1.462-4.423.944-1.083 2.264-1.6 3.915-1.6 1.462 0 2.688.47 3.632 1.364.943.942 1.415 2.26 1.415 4.047 0 .612-.048 1.177-.095 1.647h-7.688c.048.8.33 1.46.85 1.976.518.519 1.131.754 1.886.754 1.038 0 1.84-.377 2.453-1.177l1.697 1.695c-1.084 1.129-2.452 1.74-4.197 1.74" id="Fill-8" fill="#373A36"/><path d="M82.868 28.47c-1.604 0-2.83-.517-3.774-1.6-.943-1.082-1.415-2.54-1.415-4.423 0-1.882.472-3.341 1.415-4.423.944-1.083 2.17-1.6 3.774-1.6 2.405 0 3.914 1.082 4.574 3.2l-2.5.847c-.377-.989-1.037-1.506-1.98-1.506-.802 0-1.415.33-1.887.94-.471.613-.66 1.507-.66 2.59 0 1.081.236 1.929.66 2.54.425.612 1.037.941 1.793.941 1.084 0 1.792-.564 2.122-1.694l2.546.753c-.707 2.306-2.263 3.436-4.668 3.436" id="Fill-10" fill="#373A36"/><path d="M89.376 28.188V13.13l2.641-1.224v5.835c.755-.894 1.793-1.365 3.066-1.365 1.226 0 2.17.377 2.971 1.13.755.753 1.132 1.929 1.132 3.576v7.106h-2.64v-6.635c0-1.741-.708-2.635-2.17-2.635-1.557 0-2.359.847-2.359 2.588v6.73l-2.64-.048z" id="Fill-12" fill="#373A36"/><path d="M116.449 28.188h-2.736v-8.376c0-.706.047-1.318.094-1.882-.188.564-.424 1.176-.708 1.929l-3.867 8.612-3.867-8.659a22.284 22.284 0 0 1-.755-1.882c.048.564.095 1.223.095 1.882v8.423h-2.736V12.376h2.736l4.055 9.271c.19.424.33.8.425 1.177.141-.377.283-.753.425-1.177l4.103-9.27h2.641v15.811h.095z" id="Fill-14" fill="#007672"/><path d="M123.381 26.165a3.47 3.47 0 0 0 2.594-1.13V23.53c-.66-.33-1.415-.47-2.31-.47-.708 0-1.274.14-1.699.376-.424.235-.66.66-.66 1.177 0 .47.189.847.567 1.13.33.281.848.423 1.508.423zm2.594 2.024v-.942c-.754.8-1.792 1.177-3.065 1.177-1.227 0-2.264-.33-3.018-.989-.755-.658-1.18-1.6-1.18-2.823 0-1.271.425-2.212 1.32-2.824a5.519 5.519 0 0 1 3.208-.988c1.085 0 2.028.188 2.735.612V20.8c0-.753-.188-1.27-.565-1.6-.378-.33-.943-.517-1.699-.517-1.273 0-2.404.376-3.443 1.082l-.801-2.165c1.273-.847 2.783-1.27 4.528-1.27.613 0 1.131.046 1.603.14.472.095.943.283 1.415.566.472.281.849.752 1.132 1.364.283.612.424 1.365.424 2.306v7.435l-2.594.048z" id="Fill-16" fill="#007672"/><path d="M135.738 25.93c.944 0 1.699-.377 2.17-1.13v-4.753c-.519-.753-1.273-1.13-2.17-1.13-.849 0-1.462.283-1.933.895-.425.612-.66 1.459-.66 2.635 0 1.082.235 1.93.66 2.589.471.61 1.132.893 1.933.893m-.613 6.777l-1.415-2.118c1.604-.094 2.689-.33 3.302-.752.613-.377.896-.99.896-1.79v-.657c-.613.705-1.51 1.035-2.641 1.035-1.415 0-2.547-.518-3.443-1.554-.896-1.034-1.32-2.54-1.32-4.47 0-1.883.424-3.341 1.32-4.423.896-1.083 2.028-1.6 3.49-1.6 1.085 0 1.934.329 2.594.988v-.706h2.641v10.4c0 1.929-.424 3.294-1.226 4.14-.802.848-2.217 1.366-4.198 1.507" id="Fill-18" fill="#007672"/><path d="M143.19 28.188h2.642v-11.53h-2.642v11.53zm2.453-13.553c-.283.33-.66.47-1.132.47-.424 0-.802-.14-1.132-.47-.33-.33-.472-.659-.472-1.13 0-.423.142-.8.472-1.129.33-.282.66-.47 1.132-.47.425 0 .802.141 1.132.47.283.283.472.66.472 1.13-.048.423-.189.8-.472 1.13z" id="Fill-20" fill="#007672"/><path d="M153.048 28.47c-1.604 0-2.83-.517-3.773-1.6-.944-1.082-1.415-2.54-1.415-4.423 0-1.882.471-3.341 1.415-4.423.943-1.083 2.17-1.6 3.773-1.6 2.405 0 3.914 1.082 4.575 3.2l-2.5.847c-.377-.989-1.038-1.506-1.98-1.506-.803 0-1.416.33-1.887.94-.472.613-.66 1.507-.66 2.59 0 1.081.235 1.929.66 2.54.424.612 1.037.941 1.792.941 1.085 0 1.792-.564 2.122-1.694l2.547.753c-.707 2.306-2.264 3.436-4.67 3.436" id="Fill-22" fill="#007672"/></g></g></g></g></svg>