<svg xmlns="http://www.w3.org/2000/svg" width="65" height="52" viewBox="0 0 65 52">
    <g fill="#007672" fill-rule="evenodd">
        <path d="M64.847 15.416c-3.059.673-6.056 1.285-9.176 1.958.611-2.508 1.162-4.833 1.713-7.158-.062 0-.062 0-.123-.06a2115.795 2115.795 0 0 1-5.016 14.743c-3.304-3.365-6.546-6.607-9.85-9.91 1.04-.368 1.958-.735 2.876-1.102 3.915-1.407 7.769-2.875 11.684-4.282.429-.184.734-.123 1.101.183 2.08 1.713 4.16 3.426 6.24 5.2.184.061.306.245.551.428zM25.021 26.061c2.875 2.447 5.628 4.833 8.443 7.219l.06-.061c-.122-.123-.244-.306-.366-.428-2.325-2.386-4.65-4.833-6.974-7.22-.306-.305-.368-.611-.245-.978 1.346-5.995 2.692-11.99 3.976-17.986 0-.061 0-.122-.122-.183-1.224 4.22-2.386 8.442-3.61 12.724C17.436 12.786 8.749 6.424 0 .122 0 .062.061 0 .061 0 1.53.306 2.936.55 4.405.856c5.322 1.04 10.706 2.08 16.028 3.12 3.059.612 6.118 1.163 9.238 1.836.305.06.673.306.917.55 7.036 6.118 14.01 12.174 21.045 18.292.122.122.245.245.428.367-.245.123-.428.245-.612.306-5.322 2.753-10.583 5.445-15.905 8.198-.49.244-.98.55-1.408.917-7.585 5.75-15.049 11.502-22.512 17.252-.062.061-.184.122-.368.122 4.589-8.564 9.177-17.129 13.765-25.755z"/>
    </g>
</svg>
